<svg version="1.1" id="Layer_1" xmlns="http://www.w3.org/2000/svg" xmlns:xlink="http://www.w3.org/1999/xlink" x="0px" y="0px"
	 width="100%" viewBox="0 0 719 454" enable-background="new 0 0 719 454" xml:space="preserve">
<path fill="#FFFFFF" opacity="1.000000" stroke="none" 
	d="
M719.589600,251.987396 
	C720.000000,318.123444 719.943787,384.247070 720.129272,450.369995 
	C720.141296,454.674744 718.943909,455.097321 715.135803,455.094574 
	C561.403015,454.983734 407.670166,455.000000 253.468658,455.000000 
	C253.019989,452.517761 255.302338,452.437714 256.759735,451.602570 
	C262.576172,448.269440 265.780579,443.641022 265.709778,436.629028 
	C265.533112,419.130981 265.696320,401.629761 265.633301,384.130096 
	C265.598938,374.583923 261.780426,369.706085 252.594025,367.219452 
	C250.135452,366.553986 247.676636,365.944580 246.742310,363.157043 
	C242.347977,350.046600 232.208786,342.432190 220.848724,335.938324 
	C218.750992,334.739197 215.334900,334.237549 215.250961,331.556549 
	C215.163208,328.753479 218.659882,328.342987 220.715485,327.106354 
	C231.197403,320.800446 240.875351,313.506256 249.152985,304.441071 
	C252.551651,300.719025 256.658325,298.023651 260.954865,295.360443 
	C283.762970,281.222931 296.664703,261.004120 297.647461,233.777466 
	C297.689514,232.612320 297.779083,231.428238 297.632477,230.280304 
	C296.637909,222.491318 299.029724,216.707932 305.130585,211.063446 
	C318.112396,199.052780 316.536499,177.290176 302.544983,166.544846 
	C298.741455,163.623779 297.574127,160.421570 297.593628,155.917236 
	C297.711945,128.584610 297.681915,101.251175 297.645721,73.918083 
	C297.599304,38.852638 268.518707,6.874043 233.522415,3.342648 
	C231.886307,3.177551 230.138870,3.336351 228.980499,1.403548 
	C391.233124,1.000000 553.466248,1.012615 715.699280,0.915027 
	C719.158569,0.912946 720.117798,1.442441 720.109924,5.194346 
	C719.960754,76.150223 720.000000,147.106491 720.000000,218.531342 
	C716.637024,218.156860 717.769775,215.310989 717.697327,213.278183 
	C716.723145,185.971222 712.804626,159.121338 703.276184,133.464462 
	C699.935730,124.469887 700.180603,118.724449 706.903931,110.679787 
	C730.545105,82.392151 713.678833,38.366535 677.433289,31.664551 
	C658.514099,28.166290 642.549133,33.795639 629.866577,48.243332 
	C626.940857,51.576241 623.988770,52.519577 619.746582,51.258820 
	C590.616272,42.601299 560.680786,41.157597 530.629822,42.602337 
	C509.640411,43.611431 488.862518,46.941128 468.871063,53.864494 
	C464.898560,55.240238 462.413727,54.414558 459.937775,51.053837 
	C450.688446,38.499302 438.027557,31.492308 422.577789,30.641977 
	C393.704651,29.052847 371.334503,51.336491 370.301453,76.704643 
	C369.593170,94.096130 375.385132,108.348083 388.875916,119.368362 
	C391.463745,121.482300 391.974396,123.721886 390.751068,126.816788 
	C383.318451,145.620819 380.522003,165.287567 379.189026,185.369995 
	C377.740356,207.194611 377.881592,229.037476 378.646088,250.803528 
	C379.472137,274.322174 390.813873,293.377380 408.531891,308.628601 
	C415.382233,314.525238 422.963684,319.427826 431.056152,323.394989 
	C435.259277,325.455444 436.660065,328.095581 436.506775,332.771667 
	C436.108307,344.925354 436.409637,357.098907 436.357300,369.264313 
	C436.325500,376.656525 435.901764,377.338898 428.776794,376.373901 
	C417.181763,374.803497 405.480865,376.076416 393.885254,374.510986 
	C386.046600,373.452728 380.643616,369.828064 377.468719,362.522430 
	C374.647736,356.031036 370.612762,354.306091 363.755585,356.102112 
	C362.142456,356.524567 360.574097,357.094513 359.018494,357.694183 
	C350.249237,361.074554 348.281250,365.472382 352.636108,373.952942 
	C358.302307,384.987183 368.190186,391.019409 379.555969,394.846954 
	C384.941345,396.660583 390.562988,397.647980 396.262054,397.593323 
	C407.773438,397.482880 419.201630,398.563599 430.637817,399.626953 
	C433.222778,399.867279 435.748108,400.153564 436.543884,403.191193 
	C437.346100,406.253571 435.146088,407.742035 433.101807,409.214691 
	C428.517334,412.517273 424.613373,416.171478 424.384644,422.421356 
	C424.140015,429.104919 427.901733,433.343994 432.908539,436.741089 
	C440.641388,441.987701 449.383636,444.852570 458.527374,446.116089 
	C479.374207,448.996765 500.056091,449.033569 520.064758,441.108093 
	C523.834167,439.615021 527.237976,437.514160 530.299805,434.943787 
	C535.595520,430.498016 537.915222,425.026794 535.678406,418.043915 
	C534.243286,413.563690 534.799866,412.944214 539.559082,412.666107 
	C540.889587,412.588348 542.225037,412.620819 543.558105,412.634674 
	C550.541748,412.707153 550.744629,412.944763 549.625061,419.998383 
	C548.814209,425.107361 550.022034,429.529724 553.737183,433.277954 
	C557.449829,437.023682 561.759277,439.832245 566.694214,441.542786 
	C591.282959,450.065826 616.056091,449.976013 640.864258,442.638153 
	C645.815125,441.173767 650.413940,438.648895 654.563354,435.518036 
	C663.655334,428.657928 664.102173,417.811768 655.033691,411.045166 
	C650.362976,407.560059 648.315247,404.193756 650.231445,398.489807 
	C651.178833,395.669739 650.640259,392.530426 650.620728,389.534332 
	C650.495728,370.371765 650.992004,351.204742 650.342102,332.048126 
	C650.215942,328.329102 652.563599,327.047516 655.195129,325.972076 
	C663.411743,322.614197 671.131104,318.340515 678.439636,313.359009 
	C699.275269,299.157562 713.748779,280.618225 717.722961,255.033661 
	C717.903015,253.874390 718.129578,252.725540 719.589600,251.987396 
z"/>
<path fill="#000000" opacity="1.000000" stroke="none" 
	d="
M228.531342,1.000000 
	C233.597061,2.922731 238.630768,2.407536 243.416779,3.829637 
	C254.410156,7.096158 264.234344,12.072376 273.056976,19.454842 
	C286.090027,30.360422 293.705994,44.410233 297.657745,60.565788 
	C298.522675,64.101768 299.089996,67.889153 299.072479,71.722267 
	C298.940735,100.538040 299.079834,129.355209 298.890167,158.170334 
	C298.868896,161.397980 299.892822,163.323700 302.380280,164.859756 
	C317.263428,174.050537 319.573242,198.672745 307.040344,211.393112 
	C304.983521,213.480667 303.252930,215.932251 300.390198,217.231003 
	C298.328491,218.166367 298.986420,220.380585 299.020477,222.124435 
	C299.247772,233.763260 299.113831,245.313354 295.035034,256.493286 
	C288.333832,274.861176 276.237305,288.519714 259.251556,297.882019 
	C256.747314,299.262299 254.570999,300.800262 252.680725,302.834961 
	C241.824387,314.521057 229.669830,324.503967 214.970581,331.521454 
	C222.723511,334.957886 229.635834,339.400452 236.013626,344.590973 
	C241.544418,349.092133 245.548294,355.076324 247.599670,361.723419 
	C248.647156,365.117645 250.483643,365.542267 252.789764,365.941101 
	C261.411163,367.432220 266.986298,373.706421 266.995056,382.337952 
	C267.013489,400.493927 267.000732,418.649902 267.000641,436.805878 
	C267.000610,446.031158 262.398102,451.864288 253.106079,454.640808 
	C189.645767,455.000000 126.291542,455.000000 62.468658,455.000000 
	C51.279873,452.431488 46.744652,446.727722 46.718147,435.581879 
	C46.677361,418.431763 46.723892,401.281433 46.700439,384.131256 
	C46.688820,375.637329 50.258228,369.398712 58.094002,365.857056 
	C60.162903,364.921936 61.790169,363.736938 62.619022,361.524231 
	C67.597992,348.232513 77.707916,339.940063 89.845406,333.605957 
	C91.396400,332.796570 93.348358,332.488739 94.535568,330.158997 
	C87.795937,326.240845 81.343430,321.914673 75.346222,316.944672 
	C63.143875,306.832428 53.113934,294.963440 45.968643,280.768311 
	C43.047359,274.964752 39.817886,269.488312 35.630512,264.387756 
	C26.694571,253.503082 21.181313,240.904770 19.655807,226.768112 
	C19.218908,222.719406 17.615623,219.984741 14.002376,217.538513 
	C6.768167,212.640839 1.431294,206.106232 1.226840,196.309326 
	C1.000000,192.307098 1.000000,188.614182 1.000000,184.460632 
	C1.874941,174.356339 6.805401,167.233932 14.880074,162.249786 
	C18.063374,160.284882 18.645302,157.548187 18.636101,154.190567 
	C18.584555,135.382019 18.597588,116.573189 18.613173,97.764473 
	C18.646715,57.281475 44.998764,26.237839 84.938004,20.183561 
	C95.969604,18.511312 107.211380,19.628576 118.350189,19.709499 
	C124.070953,19.751059 128.724915,18.514137 133.492203,14.948359 
	C145.176926,6.208546 158.229004,0.616960 173.652115,1.230334 
	C192.020889,1.000000 210.041794,1.000000 228.531342,1.000000 
z"/>
<path fill="#030303" opacity="1.000000" stroke="none" 
	d="
M720.000000,251.531342 
	C718.152100,258.055573 717.566711,264.394012 715.305542,270.396057 
	C709.528687,285.730591 700.012756,298.062195 687.343811,308.380554 
	C677.340332,316.528015 666.309082,322.688751 654.571228,327.728699 
	C652.041748,328.814850 651.333252,329.611664 651.795776,332.700409 
	C652.552612,337.753937 652.004761,343.003052 652.005005,348.169647 
	C652.005676,363.169525 651.948364,378.169739 652.042419,393.169006 
	C652.068237,397.285400 650.113831,401.392395 650.482117,405.016510 
	C650.828247,408.422272 656.451965,409.323151 658.984802,412.414307 
	C666.426147,421.495636 663.678894,432.418732 652.020935,438.992523 
	C640.227356,445.642822 627.398926,448.555817 613.986633,448.975372 
	C597.911621,449.478271 581.942993,449.063599 566.634094,443.057770 
	C560.602844,440.691650 555.160278,437.555603 551.104614,432.511566 
	C546.647583,426.968231 546.965271,420.843353 550.140503,414.330872 
	C545.140259,414.330872 540.414124,414.330872 535.447021,414.330872 
	C538.499939,418.935364 539.101807,424.154480 536.834412,429.193085 
	C533.947083,435.609314 528.055847,439.185394 521.995178,441.900085 
	C504.439056,449.763611 485.665283,449.995728 467.034546,448.784332 
	C455.036926,448.004272 443.358704,444.880890 432.708801,438.409790 
	C420.232300,430.828796 419.231903,415.818390 431.546326,408.851624 
	C432.664490,408.219055 433.716431,407.458252 434.750977,406.691956 
	C435.936646,405.813690 436.529449,404.607208 435.668182,403.276428 
	C435.045349,402.314056 434.943359,400.988312 433.028442,400.928864 
	C421.511963,400.571472 410.076019,398.883118 398.517548,398.970520 
	C381.440613,399.099670 366.624146,393.600159 355.114655,380.563080 
	C351.520630,376.492004 349.256134,371.757507 348.963409,366.175659 
	C348.786774,362.808167 350.368378,360.063171 352.942413,358.763641 
	C357.040283,356.694702 361.493530,354.986359 365.987915,354.128357 
	C372.371582,352.909760 376.794800,356.036469 378.992615,362.199615 
	C381.363708,368.848633 386.663544,372.140564 393.579895,373.116608 
	C406.621826,374.957184 419.915344,372.706390 432.844177,375.913727 
	C435.732147,376.630127 434.964783,374.144714 434.969330,372.709747 
	C435.011963,359.210022 434.783966,345.704773 435.124725,332.213501 
	C435.225250,328.232605 434.224182,326.568024 430.549377,324.705261 
	C410.685303,314.636261 394.285156,300.679169 384.655609,280.090942 
	C379.980255,270.094879 377.003662,259.512909 376.997375,248.309296 
	C376.987457,230.642792 376.511932,212.959686 377.118896,195.314056 
	C377.851288,174.022827 379.804932,152.745728 387.173859,132.546921 
	C389.643433,125.777496 390.058411,122.331879 383.668701,116.410980 
	C366.175354,100.200974 363.828186,72.031281 376.694916,52.683338 
	C385.466736,39.492970 397.332062,31.863022 413.233337,29.894449 
	C434.067871,27.315140 449.861633,35.243580 462.065674,51.619625 
	C463.223328,53.173031 463.744598,54.402771 466.503571,53.331699 
	C476.862946,49.310051 487.742859,47.073093 498.649170,44.953293 
	C521.483093,40.515171 544.587341,40.253082 567.636047,41.187263 
	C585.769165,41.922207 603.804382,44.776718 621.197937,50.227985 
	C625.122070,51.457836 626.830750,50.099827 628.639343,47.745300 
	C636.779663,37.147919 647.747253,32.013939 660.719482,29.908766 
	C677.581116,27.172409 691.843018,32.692291 703.880005,43.688637 
	C711.559937,50.704662 716.263062,60.043140 718.033081,70.618851 
	C721.169678,89.360100 716.167297,105.340523 702.144897,118.291214 
	C700.293457,120.001144 700.138245,121.388084 701.106934,123.647369 
	C708.053284,139.847900 712.217834,156.807846 715.078674,174.175842 
	C717.508545,188.927383 719.049500,203.718796 719.592957,218.830750 
	C720.000000,229.687561 720.000000,240.375122 720.000000,251.531342 
z"/>
<path fill="#FFFFFF" opacity="1.000000" stroke="none" 
	d="
M1.000000,196.468658 
	C3.445387,203.171722 6.067968,210.232086 12.500820,214.996109 
	C13.291029,215.581329 13.901886,216.704254 14.741540,216.879333 
	C20.284193,218.035019 20.533844,222.460159 20.985765,226.723297 
	C22.548065,241.461029 28.501869,254.345627 38.125397,265.392792 
	C41.309975,269.048523 43.616482,273.011810 45.621983,277.227203 
	C56.924759,300.984650 75.106865,317.958649 98.202560,330.752350 
	C91.538773,334.425323 84.596176,337.185852 78.893814,342.004333 
	C72.354805,347.529724 66.335152,353.450409 63.998039,362.065125 
	C63.280018,364.711792 61.720455,366.157379 59.127663,367.013611 
	C52.249210,369.285095 48.008595,375.245880 48.003571,382.346191 
	C47.990723,400.499512 48.297611,418.660187 47.849556,436.802460 
	C47.675148,443.864349 53.438717,452.858307 61.893890,454.640808 
	C43.192440,455.000000 24.383810,454.896210 5.578267,455.090942 
	C1.982869,455.128143 0.885557,454.523773 0.892162,450.589447 
	C1.034093,366.038910 1.000000,281.488098 1.000000,196.468658 
z"/>
<path fill="#FFFFFF" opacity="1.000000" stroke="none" 
	d="
M173.531342,1.000000 
	C169.218018,2.856265 164.016830,2.375837 159.104904,3.899340 
	C148.511459,7.185038 138.635101,11.682137 130.395981,19.197069 
	C128.694000,20.749464 127.105171,21.022030 125.092010,21.015608 
	C114.268143,20.981073 103.441605,20.850901 92.620705,21.033504 
	C75.712669,21.318829 60.928799,27.237307 47.659866,37.719200 
	C33.257713,49.096291 25.312429,64.163002 21.249800,81.591637 
	C20.330036,85.537407 20.077955,89.709641 20.052523,93.780975 
	C19.932899,112.930344 19.999283,132.080872 19.999285,151.230988 
	C19.999285,160.511810 20.021532,160.543289 12.687647,165.726654 
	C6.410780,170.162979 2.955527,176.266113 1.373525,183.877625 
	C1.000000,124.406723 1.043093,64.813339 0.895566,5.220429 
	C0.886478,1.549449 1.733455,0.897819 5.269598,0.906252 
	C61.200382,1.039642 117.131577,1.000000 173.531342,1.000000 
z"/>
<path fill="#A4754E" opacity="1.000000" stroke="none" 
	d="
M133.629883,212.016190 
	C132.447784,219.209305 129.526321,225.934570 126.578056,232.543839 
	C120.897507,245.278229 130.034164,258.302551 143.287369,257.381927 
	C153.236679,256.690796 163.273865,257.350525 173.269363,257.216797 
	C185.988449,257.046661 193.457718,246.189484 189.137238,234.132858 
	C186.409805,226.521698 183.388474,219.015854 180.734741,210.907776 
	C189.662979,218.244217 199.464401,223.971039 211.054718,224.832230 
	C222.319107,225.669205 233.698669,225.770264 244.341049,220.800751 
	C255.171036,215.743637 262.992950,207.644760 269.003204,196.941330 
	C269.003204,203.418457 269.003265,209.895584 269.003204,216.372711 
	C269.003174,219.371887 269.016479,222.371155 269.000061,225.370239 
	C268.963684,232.011276 265.653503,236.673828 259.342468,238.921371 
	C251.473755,241.723663 243.085938,242.006683 235.026230,243.888092 
	C232.943359,244.374298 230.458969,244.511368 229.982254,247.126114 
	C229.561905,249.431717 231.558273,250.629639 233.106354,251.860825 
	C241.460617,258.504913 251.050690,262.405304 261.893005,264.558105 
	C257.148590,276.749847 250.294907,287.406342 241.472031,296.787933 
	C222.880905,316.556335 199.852661,328.121063 173.159424,331.678375 
	C119.568756,338.820190 65.007416,308.090118 49.728035,254.044983 
	C47.464237,246.037598 46.110264,237.879959 46.064781,229.549652 
	C46.000500,217.776413 46.048492,206.002563 46.048492,192.747406 
	C53.979996,211.136398 66.513855,222.035278 85.228310,224.477615 
	C102.770584,226.766953 119.434998,224.711777 133.629883,212.016190 
z"/>
<path fill="#662E90" opacity="1.000000" stroke="none" 
	d="
M60.784344,381.395752 
	C62.583996,377.855774 65.402412,377.145782 68.524132,377.145233 
	C127.837494,377.135010 187.150864,377.116669 246.464188,377.167877 
	C252.963837,377.173492 254.995026,379.451904 254.998337,385.964966 
	C255.006638,402.292816 255.008682,418.620636 254.996964,434.948486 
	C254.992798,440.753540 253.057449,442.929199 247.444916,442.932587 
	C187.465134,442.969025 127.485313,442.953217 67.505508,442.961914 
	C64.875526,442.962311 62.576675,442.351135 61.006660,439.613220 
	C60.017097,433.139801 60.587143,426.979187 60.550430,420.838196 
	C60.472725,407.840607 60.442604,394.841644 60.784344,381.395752 
z"/>
<path fill="#A3754E" opacity="1.000000" stroke="none" 
	d="
M46.999702,123.807770 
	C47.992687,106.003136 50.430107,88.982483 58.366302,73.232430 
	C66.917862,56.261147 80.870186,48.062138 99.759819,48.035458 
	C110.257820,48.020634 120.772713,48.383686 131.246521,47.880077 
	C136.246735,47.639656 137.300674,49.896412 137.938629,53.918686 
	C140.701935,71.341125 145.308197,88.231369 152.723923,104.310036 
	C156.162491,111.765488 160.728836,118.485115 165.509079,125.093292 
	C165.606262,125.227638 165.706421,125.379776 165.842270,125.463341 
	C170.548187,128.358139 165.968964,137.032242 174.896729,138.298325 
	C179.882248,139.005325 182.682617,145.898010 187.923386,150.758606 
	C181.624084,150.758606 176.732712,150.927338 171.860123,150.697739 
	C168.746063,150.551010 167.967773,151.675949 167.931808,154.683945 
	C167.796814,165.968597 167.685837,165.967285 156.554611,165.967239 
	C147.997803,165.967224 148.050461,165.966766 147.978577,157.293137 
	C147.917114,149.877808 149.057571,150.782196 141.251846,150.772583 
	C111.257576,150.735611 81.262817,150.681778 51.269417,150.847214 
	C47.220901,150.869553 45.642677,149.974945 45.949471,145.667557 
	C46.456341,138.551025 45.714108,131.364380 46.999702,123.807770 
z"/>
<path fill="#CECFD1" opacity="1.000000" stroke="none" 
	d="
M116.999374,162.114151 
	C122.659706,162.114441 127.820183,162.114777 132.980652,162.114960 
	C134.472168,162.115021 136.098679,161.845627 136.006104,164.212509 
	C135.739838,171.020355 136.826401,177.910278 135.408661,184.633133 
	C132.032028,200.644730 119.246391,211.814560 102.466820,213.202225 
	C90.335327,214.205490 78.458519,213.457199 68.521309,205.000031 
	C59.592690,197.401199 55.443504,187.595032 55.340908,176.038132 
	C55.301418,171.589386 53.439064,165.829468 56.123165,163.029816 
	C58.829315,160.207153 64.625313,162.188126 69.056801,162.157257 
	C84.870377,162.047043 100.685173,162.114151 116.999374,162.114151 
z"/>
<path fill="#CED0D2" opacity="1.000000" stroke="none" 
	d="
M219.725586,179.223984 
	C230.187683,179.374832 231.285614,176.610794 226.496628,162.115448 
	C233.206390,162.115448 239.825623,162.228500 246.438904,162.078293 
	C251.386795,161.965897 249.291367,165.902130 250.130066,168.551575 
	C244.823181,169.173691 241.500839,172.519272 238.114960,175.997849 
	C230.795334,183.517899 223.303680,190.870499 215.882935,198.292130 
	C215.058426,199.116730 214.219177,199.927460 213.427826,200.784073 
	C211.606705,202.755402 210.173569,205.118103 212.299652,207.405014 
	C214.693695,209.980148 216.866425,207.893494 218.669342,206.113159 
	C226.611221,198.270706 234.420792,190.294235 242.397354,182.487778 
	C244.859772,180.077896 246.790543,176.979523 250.628021,175.892807 
	C252.612000,183.187973 251.908966,190.553864 252.686249,197.802948 
	C252.882690,199.635132 251.776505,200.981369 250.606674,202.161865 
	C238.164230,214.717789 222.716125,215.435120 206.968155,211.950394 
	C192.288712,208.702087 183.474289,198.429688 180.586838,183.853500 
	C179.346115,177.590240 180.181351,170.923599 179.974152,164.443390 
	C179.904541,162.265930 181.080917,162.070267 182.788696,162.094223 
	C187.281662,162.157242 191.778748,162.207306 196.268829,162.077484 
	C198.534851,162.011948 199.916260,163.281921 201.438507,164.596939 
	C205.840164,168.399399 210.305511,172.128159 214.911591,176.151703 
	C215.871445,178.850464 214.008301,180.072327 212.677490,181.451492 
	C209.224594,185.029800 205.622726,188.463364 202.172073,192.043762 
	C200.843704,193.422028 199.122635,194.665863 199.468231,198.211105 
	C207.383408,192.605362 212.840881,185.363403 219.725586,179.223984 
z"/>
<path fill="#A2754F" opacity="1.000000" stroke="none" 
	d="
M191.006409,349.063019 
	C191.004898,354.045380 190.935440,358.538727 191.031616,363.028473 
	C191.077103,365.152161 190.322311,365.955536 188.146652,365.948700 
	C169.846634,365.891327 151.546356,365.904388 133.246201,365.933685 
	C131.335800,365.936737 130.055176,365.603790 130.082520,363.256256 
	C130.158081,356.768921 130.145187,350.279785 130.085587,343.792114 
	C130.066528,341.718384 130.726196,341.518738 132.750946,341.824585 
	C141.424362,343.134766 150.107056,344.222839 158.946426,344.119293 
	C168.281967,344.009949 177.490189,342.997009 186.496719,340.823792 
	C190.655655,339.820312 191.474304,340.884338 191.031509,344.582733 
	C190.874405,345.894836 191.006393,347.241577 191.006409,349.063019 
z"/>
<path fill="#805D42" opacity="1.000000" stroke="none" 
	d="
M148.928253,206.887848 
	C150.069199,203.725998 151.185745,200.964142 152.128616,198.144226 
	C152.995102,195.552780 154.530014,193.665558 157.332870,193.537354 
	C160.135742,193.409149 161.872696,195.099625 162.861191,197.676620 
	C168.076996,211.274063 173.380692,224.838165 178.517029,238.465439 
	C179.931061,242.217010 177.699997,245.815674 173.729935,245.893021 
	C163.098877,246.100113 152.457855,246.113159 141.827515,245.886978 
	C137.479065,245.794479 135.439621,242.347229 136.954758,238.321167 
	C140.858521,227.947952 144.863556,217.612869 148.928253,206.887848 
z"/>
<path fill="#65318D" opacity="1.000000" stroke="none" 
	d="
M81.319824,365.998413 
	C79.237488,365.998413 77.607269,365.998413 75.533340,365.998413 
	C77.898781,358.529816 83.070457,353.974396 88.745766,349.948669 
	C96.372047,344.539062 104.966850,341.088776 113.841133,338.337952 
	C117.044449,337.344971 119.227180,337.747070 119.034210,342.117523 
	C118.748932,348.578522 118.790039,355.067810 119.030190,361.532471 
	C119.156555,364.934113 118.232277,366.152771 114.636215,366.079254 
	C103.685486,365.855347 92.727257,365.998291 81.319824,365.998413 
z"/>
<path fill="#A1744F" opacity="1.000000" stroke="none" 
	d="
M199.248688,107.444550 
	C199.173050,100.026169 198.429169,93.035759 200.062927,86.118004 
	C201.667267,79.324844 205.113495,77.508713 211.225220,80.674263 
	C218.231232,84.303017 223.405060,89.890915 227.093353,96.789154 
	C229.751785,101.761223 231.791626,107.019394 233.628937,112.998940 
	C226.173676,112.909912 219.165390,111.397232 212.095306,111.945549 
	C209.775070,112.125488 207.190994,111.393005 205.149734,112.176994 
	C200.498474,113.963417 199.720718,111.375725 199.248688,107.444550 
z"/>
<path fill="#9E724E" opacity="1.000000" stroke="none" 
	d="
M26.669821,208.251419 
	C19.378851,208.190475 12.401123,196.983536 13.020885,189.198105 
	C13.792983,179.499023 22.348211,170.799271 31.310669,170.932510 
	C33.809738,170.969650 34.849663,171.596573 34.820702,174.281372 
	C34.704422,185.061829 34.767654,195.844254 34.780029,206.625961 
	C34.781788,208.160172 34.810688,209.666275 32.719833,210.602142 
	C30.239698,210.915726 28.617943,209.576447 26.669821,208.251419 
z"/>
<path fill="#A2754E" opacity="1.000000" stroke="none" 
	d="
M283.547791,208.956421 
	C280.490540,209.356995 281.021118,207.427429 281.016418,206.077621 
	C280.979523,195.441956 281.083099,184.804901 280.938293,174.171066 
	C280.899872,171.349258 282.114868,170.965393 284.501526,170.947556 
	C291.791260,170.893082 299.188324,176.223770 301.841797,183.689667 
	C304.654846,191.604736 302.149200,200.486801 295.580078,205.618423 
	C294.416351,206.527496 293.053802,207.182037 291.451965,208.055695 
	C290.457245,208.596832 289.798645,209.046005 288.732056,209.329010 
	C288.262360,209.436386 288.073151,209.463699 287.605835,209.467484 
	C287.159821,209.380295 286.991852,209.316635 286.598999,209.126633 
	C286.374084,209.000290 285.923767,208.795624 285.687714,208.746765 
	C285.451660,208.697891 284.973053,208.715286 284.737213,208.762909 
	C284.501373,208.810516 284.030975,208.927231 283.547791,208.956421 
z"/>
<path fill="#652E8F" opacity="1.000000" stroke="none" 
	d="
M203.595535,365.218140 
	C203.158386,357.027191 203.158386,349.049927 203.158386,340.255219 
	C216.208618,344.971039 227.852966,350.842957 234.989594,363.581665 
	C234.672119,366.726105 232.482468,365.403931 231.189240,365.417175 
	C222.138153,365.510010 213.084900,365.553009 203.595535,365.218140 
z"/>
<path fill="#FEFEFE" opacity="1.000000" stroke="none" 
	d="
M250.994812,175.607544 
	C240.549179,186.280029 230.119537,196.531616 219.741135,206.834793 
	C217.249405,209.308456 214.541412,211.933914 211.332352,208.607513 
	C208.266434,205.429489 210.006195,202.356354 212.810028,199.591858 
	C222.284180,190.250580 231.663147,180.812515 241.049973,171.383026 
	C243.391312,169.031036 245.780609,167.090271 249.702057,168.945084 
	C251.013901,170.957901 250.848587,173.108383 250.994812,175.607544 
z"/>
<path fill="#9B714E" opacity="1.000000" stroke="none" 
	d="
M213.831909,144.141022 
	C212.768890,142.469788 211.927979,141.097549 210.702682,139.098038 
	C221.465195,139.098038 231.541946,138.811554 241.588577,139.236877 
	C245.696152,139.410767 244.589035,144.109406 245.933685,146.688873 
	C247.594360,149.874634 246.397873,150.989471 242.889648,150.846954 
	C237.240631,150.617462 231.535858,150.368607 225.928192,150.901718 
	C220.220993,151.444275 216.375809,149.607330 213.831909,144.141022 
z"/>
<path fill="#FAFBFB" opacity="1.000000" stroke="none" 
	d="
M219.711792,178.788010 
	C218.195831,183.911255 213.545502,186.339737 210.352310,190.035324 
	C208.084885,192.659500 205.461533,194.975159 203.011841,197.443192 
	C201.463806,199.002808 199.329651,200.032562 197.816650,198.375549 
	C196.605591,197.049225 197.825653,194.854950 199.084274,193.552460 
	C203.686417,188.790009 208.417435,184.152298 213.076263,179.444214 
	C213.767975,178.745148 214.332565,177.920303 215.016632,176.785599 
	C216.081253,178.035202 217.955460,177.893265 219.711792,178.788010 
z"/>
<path fill="#B1B3B5" opacity="1.000000" stroke="none" 
	d="
M26.284866,208.295959 
	C28.400410,208.625885 30.549358,208.833755 32.181812,210.764648 
	C34.311081,214.336807 33.454823,217.146103 30.033123,218.749374 
	C27.269564,220.044266 24.665695,219.014587 23.201515,216.363510 
	C21.255789,212.840515 22.905491,210.368774 26.284866,208.295959 
z"/>
<path fill="#BEBFC1" opacity="1.000000" stroke="none" 
	d="
M286.787476,209.043869 
	C287.086395,209.108810 287.407684,209.067764 287.563538,209.023727 
	C289.135437,208.208023 289.448090,209.326614 289.894379,210.623199 
	C291.991913,214.041367 291.330475,216.881241 288.381531,218.520599 
	C285.316467,220.224503 282.636810,218.956055 281.036987,215.365662 
	C280.966278,213.766602 281.111206,212.567352 281.723083,211.081009 
	C282.142090,210.297058 282.439423,209.857285 282.900696,209.201553 
	C283.064606,208.985596 283.000671,208.997070 283.006775,209.028992 
	C283.165771,208.923599 283.318665,208.786285 283.774994,208.597122 
	C284.890869,208.639709 285.709137,208.701416 286.787476,209.043869 
z"/>
<path fill="#674683" opacity="1.000000" stroke="none" 
	d="
M60.680946,381.234253 
	C60.990444,400.058929 60.983204,419.169800 60.951965,438.772583 
	C60.637188,438.695923 60.090874,438.126526 60.092667,437.558838 
	C60.151623,418.879242 59.561684,400.195984 60.680946,381.234253 
z"/>
<path fill="#674683" opacity="1.000000" stroke="none" 
	d="
M203.354050,365.374786 
	C213.590454,364.729614 224.038345,365.559326 234.744965,364.243011 
	C236.465256,366.488525 234.345383,365.979645 233.153412,365.974670 
	C223.285370,365.933350 213.417572,365.829803 203.354050,365.374786 
z"/>
<path fill="#434242" opacity="1.000000" stroke="none" 
	d="
M290.158142,210.927292 
	C289.371368,210.417114 288.833954,209.828766 288.007965,209.110046 
	C288.304230,207.798431 289.367218,208.044235 290.742584,208.125366 
	C290.529510,208.960876 292.027435,210.318130 290.158142,210.927292 
z"/>
<path fill="#9A9C9F" opacity="1.000000" stroke="none" 
	d="
M281.569305,210.897888 
	C281.752838,211.987854 281.660889,213.238876 281.289856,214.743530 
	C279.536530,213.571671 280.839111,212.345779 281.569305,210.897888 
z"/>
<path fill="#A4754E" opacity="1.000000" stroke="none" 
	d="
M133.911530,211.920837 
	C134.042603,211.503616 134.231293,211.136215 134.419983,210.768814 
	C134.452042,211.148819 134.484085,211.528809 134.300476,211.989319 
	C134.084824,212.069809 133.969147,211.970673 133.911530,211.920837 
z"/>
<path fill="#EF5A2B" opacity="1.000000" stroke="none" 
	d="
M389.746124,204.136612 
	C389.722778,177.068573 391.767395,150.264191 403.578278,125.316734 
	C405.430328,121.404770 402.996643,121.263138 400.929382,120.232658 
	C381.371368,110.483490 371.783966,90.185608 376.987610,69.513626 
	C381.602478,51.180763 397.326294,37.835514 416.196045,36.236351 
	C434.796265,34.660023 452.852295,45.375839 460.067627,62.932884 
	C461.907562,67.410034 463.448242,67.770454 467.705688,66.103165 
	C488.493927,57.962097 510.374664,54.960621 532.476074,53.308296 
	C533.974182,53.196293 537.230957,52.194523 536.863098,54.389912 
	C536.420898,57.028515 537.905029,61.662029 532.699646,62.057102 
	C524.908752,62.648415 517.108215,63.158787 509.338013,63.958294 
	C505.720123,64.330559 502.146057,65.225273 498.592194,66.054718 
	C497.725311,66.257034 496.508820,67.015488 496.341003,67.727539 
	C496.000305,69.172920 497.558594,69.571877 498.563690,69.900131 
	C504.942627,71.983391 511.617493,72.342484 518.225281,73.007126 
	C522.029968,73.389809 525.872070,73.569138 529.695190,73.541656 
	C532.415955,73.522095 534.285950,73.806602 533.822266,77.259621 
	C533.456299,79.985458 534.212097,82.952797 529.622070,82.867401 
	C519.789368,82.684464 510.011627,83.563812 500.399506,85.815620 
	C498.792725,86.192032 496.466064,86.417496 496.392090,88.153267 
	C496.294739,90.438225 498.971680,90.405647 500.550781,90.789505 
	C509.807495,93.039673 519.312073,93.546768 528.764832,93.851517 
	C533.013794,93.988495 533.914124,95.292488 534.094055,99.257492 
	C534.394958,105.887665 535.525574,112.493767 538.048523,118.718788 
	C538.960022,120.967735 539.747742,123.889656 542.743347,123.935623 
	C545.760498,123.981911 546.597961,121.099617 547.524048,118.834572 
	C550.200989,112.287254 551.037170,105.333397 551.600159,98.363098 
	C551.850159,95.268196 552.715942,94.003075 556.296143,93.856621 
	C565.249329,93.490402 574.251953,93.115692 583.057983,91.119392 
	C584.184082,90.864120 585.297302,90.536949 586.395935,90.179779 
	C587.474060,89.829300 588.887085,89.622833 588.821594,88.138138 
	C588.756226,86.657234 587.205078,86.504799 586.202271,86.233383 
	C576.824341,83.695297 567.193542,82.694069 557.549622,82.945679 
	C552.521179,83.076874 551.813171,81.047859 551.928833,76.898369 
	C552.004089,74.202530 552.918518,73.637978 555.414856,73.534523 
	C565.210510,73.128609 575.046265,72.899834 584.620422,70.424751 
	C586.263184,70.000092 588.878113,70.123901 588.767212,67.801613 
	C588.682800,66.033676 586.278809,65.926308 584.725708,65.532104 
	C575.309204,63.142002 565.650879,62.883942 556.022583,62.412746 
	C550.656921,62.150154 548.444458,59.896637 548.370605,54.638073 
	C548.329834,51.736382 550.517212,53.089371 551.561401,53.078907 
	C567.748230,52.916771 583.776733,54.532917 599.654724,57.673386 
	C607.639343,59.252644 615.571106,61.059116 623.206421,63.915848 
	C625.807495,64.889030 626.827942,63.982502 627.987305,61.671104 
	C636.854431,43.992691 654.981750,33.838791 672.758545,36.398346 
	C693.485535,39.382675 707.855530,53.230461 711.546997,73.777237 
	C714.625183,90.910797 705.904358,109.237343 689.815979,118.537376 
	C686.702026,120.337471 686.717773,121.768745 687.987000,124.580009 
	C698.717407,148.346817 703.549683,173.545181 705.961792,199.328796 
	C706.520447,205.300888 707.103027,211.261536 706.975220,217.743378 
	C704.606689,217.898346 704.464294,215.739426 703.694214,214.206528 
	C697.992249,202.856262 690.298706,199.701431 678.202881,203.791473 
	C671.083252,206.198883 664.915649,210.686935 657.425293,213.161514 
	C656.574524,213.361099 656.091125,213.485596 655.250854,213.736450 
	C654.643494,213.902023 654.398132,213.960922 653.778809,214.083221 
	C651.896667,214.313629 650.380371,214.244278 648.490356,214.321442 
	C646.848145,214.361481 645.591675,214.448807 643.980164,214.853912 
	C635.353149,214.812515 627.487976,212.671432 619.764648,210.097076 
	C609.508972,206.678589 599.534546,202.478836 589.425781,198.650284 
	C588.488770,198.295425 587.601868,197.834991 586.882324,196.617996 
	C588.206787,194.314880 590.355591,194.906006 592.259033,194.676102 
	C599.525269,193.798447 606.578613,192.563202 612.697632,187.919937 
	C621.515442,181.228714 625.263611,169.098358 616.211792,159.456055 
	C615.530334,158.730179 614.977173,157.901062 614.679626,156.541962 
	C615.554504,153.901627 617.767456,153.295319 619.626404,152.275635 
	C624.008545,149.871933 628.390686,147.441132 631.832397,143.741745 
	C636.315369,138.923187 635.218384,134.503418 629.046753,132.273941 
	C622.610840,129.948990 616.074890,130.285141 609.379028,131.183426 
	C595.211853,133.083969 581.772644,136.967224 569.430664,144.316635 
	C566.548950,146.032608 563.988159,148.132843 561.746277,150.615799 
	C557.579224,155.230896 557.866943,157.715637 563.214478,161.794983 
	C563.658875,162.545120 563.979980,163.070374 563.824646,163.494995 
	C561.018738,171.167877 563.273376,178.249146 566.141846,185.648560 
	C562.784607,188.417496 558.896729,187.806488 555.394226,187.994629 
	C545.510193,188.525497 535.518433,189.912704 525.437927,186.434219 
	C524.454163,185.203552 524.605835,184.145813 525.164490,183.336563 
	C529.046143,177.713394 528.918152,171.458878 528.293945,164.713974 
	C529.399109,162.582153 531.305908,162.250397 532.911133,161.438049 
	C537.753296,158.987717 538.453979,155.723145 535.003723,151.457977 
	C531.149902,146.693970 526.034119,143.511047 520.642761,140.940125 
	C507.460876,134.654221 493.437195,131.389236 478.906036,130.346008 
	C474.550751,130.033325 470.274933,130.998962 466.242218,132.585876 
	C460.901337,134.687576 459.955475,138.794250 463.672699,143.198730 
	C467.507294,147.742325 472.968811,150.077896 477.993286,153.618225 
	C478.532593,155.837585 477.269592,157.049545 476.098480,158.163605 
	C464.418884,169.274384 469.333130,184.845322 484.603699,191.547226 
	C491.867218,194.735016 499.616913,195.389969 507.864014,193.771576 
	C509.357025,193.914795 510.380127,194.201584 511.174133,195.540955 
	C510.927856,196.945404 510.236877,197.690552 509.340515,198.150970 
	C497.515228,204.225372 486.054016,211.187759 472.492737,212.979416 
	C461.169769,214.475357 450.711975,211.267838 440.453552,207.130508 
	C435.666809,205.199936 430.918030,203.193848 426.007080,201.588455 
	C413.702301,197.566040 401.596344,196.157883 389.746124,204.136612 
z"/>
<path fill="#FDFDFD" opacity="1.000000" stroke="none" 
	d="
M389.269867,204.590179 
	C398.336487,195.391174 409.070282,195.943039 420.119720,198.462845 
	C426.608551,199.942566 432.851929,202.239853 438.840637,205.100998 
	C458.572388,214.528015 477.896515,214.044891 496.946228,203.181885 
	C501.266266,200.718414 505.738373,198.521698 510.461548,196.093124 
	C513.292908,197.192657 515.763000,198.175369 518.735168,197.872131 
	C521.658936,197.573837 524.616150,198.629562 525.848938,201.397919 
	C527.758545,205.686264 530.844055,207.687180 535.335022,208.019943 
	C536.159058,208.080994 536.860840,208.600693 537.608398,209.586075 
	C538.979675,217.430344 538.226013,218.839966 531.655457,222.156799 
	C525.412048,225.308472 518.850037,226.731995 511.857208,226.311874 
	C507.550537,226.053131 503.710052,224.766159 500.488708,221.820496 
	C499.507568,220.923294 498.574249,219.953140 497.373657,219.335983 
	C495.777069,218.515274 494.141357,218.304337 492.744904,219.642700 
	C491.271179,221.055145 491.657806,222.738052 492.606659,224.213455 
	C495.682983,228.996765 500.489044,231.416687 505.714935,232.685699 
	C515.626282,235.092468 525.385315,233.876694 534.352234,229.166351 
	C540.020569,226.188812 544.673035,225.934311 550.633057,228.949829 
	C560.660217,234.023163 571.523621,235.644012 582.594543,231.866104 
	C586.292908,230.604065 589.437500,228.413544 591.949585,225.425674 
	C593.448914,223.642349 594.246094,221.521667 592.227966,219.642853 
	C590.409607,217.949982 588.389771,218.605545 586.926941,220.246063 
	C578.186401,230.048553 559.291199,227.049866 548.539062,219.377106 
	C545.553284,217.246429 545.464539,214.062317 546.029053,210.417892 
	C552.709595,207.710281 558.584778,204.393478 562.825439,198.611206 
	C563.361145,197.880737 564.700073,197.671204 565.643677,197.856201 
	C570.324341,198.773911 573.149719,196.452347 575.567261,192.479095 
	C579.798828,192.204224 583.287415,193.542542 586.975647,195.464188 
	C605.293396,203.661011 623.323669,211.597473 643.582275,214.014893 
	C643.545898,216.701889 641.222717,216.655548 639.453491,217.245056 
	C636.426697,218.253601 633.494263,219.426346 631.075256,221.544327 
	C628.103027,224.146652 628.034851,226.311142 630.691589,229.199539 
	C632.425964,231.085114 634.589233,232.289825 637.005554,233.068298 
	C653.343201,238.332016 669.682373,238.356735 686.020935,233.072784 
	C686.654175,232.867966 687.288696,232.651810 687.881409,232.351105 
	C690.766357,230.887573 693.749329,229.170822 693.864441,225.620590 
	C693.985291,221.893036 690.832886,220.280563 687.885742,219.047852 
	C680.755737,216.065445 673.283203,214.556778 665.552795,214.326767 
	C662.734802,214.242935 659.890930,214.619904 656.751099,213.705139 
	C656.215088,213.335098 656.035278,213.140076 656.008606,212.577820 
	C660.471497,211.348724 664.145081,209.058990 667.899597,206.959854 
	C672.551208,204.359222 677.391052,202.166656 682.636169,201.171753 
	C692.596436,199.282486 699.701721,202.993652 704.133484,212.222183 
	C704.991455,214.008957 705.632629,215.899857 706.654175,217.981232 
	C707.858032,232.846558 708.772461,247.453140 704.995850,261.897919 
	C704.020325,265.629089 703.192200,266.829071 698.838989,265.180145 
	C674.914673,256.117981 650.143982,250.486465 624.616211,248.393585 
	C622.055237,248.183640 617.891968,247.683594 617.430786,249.831451 
	C616.766968,252.923172 620.896301,253.709091 623.341736,254.680298 
	C646.691406,263.953766 670.976196,269.486389 695.925049,272.019257 
	C700.240356,272.457367 700.920837,273.224640 698.697815,277.003113 
	C692.756165,287.102264 692.942810,286.931396 681.969727,283.296997 
	C659.799316,275.953827 637.231079,270.314880 613.830750,268.595306 
	C610.735107,268.367828 605.769165,267.393707 605.273438,269.875610 
	C604.572510,273.385132 609.536438,274.135620 612.421387,275.259796 
	C635.031616,284.070282 658.544006,289.210999 682.586731,292.110779 
	C683.509705,292.222107 684.603577,291.711792 685.577026,293.020172 
	C682.075195,297.405396 677.443176,300.556915 672.848450,303.658356 
	C652.040649,317.703705 628.623108,325.138336 604.246277,329.564911 
	C561.527588,337.322235 518.786743,337.506470 476.289642,327.810974 
	C452.987793,322.494781 431.171143,313.824890 412.973633,297.649231 
	C410.364685,295.330170 407.529541,293.265533 405.265747,290.363953 
	C416.823456,288.191742 427.702057,286.511292 438.441986,284.071686 
	C452.720276,280.828217 466.945160,277.369415 480.427734,271.506042 
	C482.700165,270.517792 486.703979,269.694366 485.990326,266.906891 
	C485.368347,264.477600 481.375000,265.169800 478.852509,265.373749 
	C453.494415,267.423584 428.893768,273.020020 405.104797,281.962341 
	C401.347839,283.374542 399.785950,282.518768 398.272675,279.380737 
	C396.763672,276.251556 394.935699,273.271942 393.937469,269.375549 
	C409.240997,267.722229 424.163605,264.849976 438.892273,261.017334 
	C449.036469,258.377686 459.152496,255.624847 468.724304,251.236542 
	C470.080292,250.614853 471.417206,249.902298 472.635162,249.049362 
	C473.245911,248.621613 473.917297,247.799393 473.948853,247.126846 
	C474.012207,245.776520 472.698944,245.836212 471.769440,245.686096 
	C466.259888,244.796280 460.792480,245.652466 455.378662,246.417984 
	C434.237976,249.407379 413.509583,254.157333 393.419342,261.498749 
	C392.819092,261.718109 392.162506,261.783081 391.199554,261.992249 
	C387.355408,242.996841 389.512421,223.971451 389.269867,204.590179 
z"/>
<path fill="#FDFCFB" opacity="1.000000" stroke="none" 
	d="
M610.541504,383.822876 
	C595.391113,384.081085 580.608582,384.154938 566.029907,386.960114 
	C563.946716,387.360992 560.813721,386.836273 560.650024,390.679626 
	C559.771240,392.180145 558.301025,392.493439 556.807983,392.521973 
	C546.242126,392.723938 535.675232,392.789490 525.109802,392.487457 
	C524.115479,392.459045 523.158875,392.159332 521.885010,391.339661 
	C522.793823,386.970642 519.094421,387.609283 517.439331,387.201019 
	C508.524017,385.001984 499.352905,384.778046 490.229126,384.344208 
	C484.920471,384.091797 479.600220,384.082886 473.845764,383.903442 
	C470.628632,381.323639 471.527527,378.289978 472.476715,374.908844 
	C487.149139,374.128418 501.612518,374.704987 515.884277,372.082886 
	C518.706116,371.564423 523.367981,371.746277 523.371216,368.862610 
	C523.374329,366.107513 518.698547,366.220093 515.876709,365.738678 
	C501.925232,363.358643 487.824921,363.417206 473.256927,363.314301 
	C471.190155,358.515076 472.857056,354.171692 477.473206,351.050507 
	C480.651489,348.901520 484.245270,348.458282 487.955933,348.458984 
	C524.030151,348.465698 560.104309,348.489624 596.178528,348.445312 
	C601.424072,348.438873 606.076233,349.663696 609.427673,354.016388 
	C611.303650,356.452850 612.682251,359.065430 611.388000,362.694427 
	C597.192139,363.769165 583.191895,363.201874 569.412048,365.844543 
	C566.764587,366.352234 562.387207,366.147644 562.391357,368.917084 
	C562.395630,371.752472 566.808289,371.571198 569.438782,372.031311 
	C582.919067,374.389343 596.553223,374.393829 610.648926,374.464722 
	C612.957397,377.610138 612.842224,380.622284 610.541504,383.822876 
z"/>
<path fill="#FCFCFC" opacity="1.000000" stroke="none" 
	d="
M435.779388,414.727722 
	C449.711578,405.987030 464.976501,404.149994 480.553223,404.058258 
	C493.594238,403.981415 506.402252,405.678284 518.498291,411.016632 
	C521.865906,412.502869 525.051514,414.290497 527.655884,416.915283 
	C531.802490,421.094360 531.830811,424.830933 527.702209,429.036743 
	C523.634888,433.180176 518.463196,435.469452 513.026428,437.131195 
	C490.077820,444.145477 467.214203,443.981873 444.542847,435.925110 
	C441.606110,434.881470 438.766266,433.336243 436.177032,431.586243 
	C428.326294,426.280029 428.186646,421.182739 435.779388,414.727722 
z"/>
<path fill="#FCFCFC" opacity="1.000000" stroke="none" 
	d="
M579.100464,407.048798 
	C601.992920,402.215118 624.124146,402.388031 645.447571,412.105927 
	C650.310059,414.321930 655.639893,417.127655 655.448059,423.332947 
	C655.267334,429.177856 650.087891,431.817963 645.396423,434.059601 
	C628.620483,442.075378 610.794739,443.012146 592.680359,441.357758 
	C582.850891,440.459991 573.243774,438.380737 564.460144,433.657471 
	C560.069946,431.296631 555.152771,428.691895 555.214355,422.891663 
	C555.273071,417.352936 560.074829,414.945099 564.266174,412.520935 
	C568.762695,409.920227 573.712891,408.460510 579.100464,407.048798 
z"/>
<path fill="#E75A2E" opacity="1.000000" stroke="none" 
	d="
M611.442871,363.304016 
	C610.300903,354.237640 606.038208,350.204346 597.315735,350.199768 
	C560.249329,350.180237 523.182922,350.174255 486.116516,350.204926 
	C477.896149,350.211731 473.586090,354.276886 472.813477,362.887115 
	C463.733337,364.296387 454.579010,363.918121 445.016663,365.785492 
	C445.016663,354.756622 444.939301,343.980713 445.059662,333.206970 
	C445.100433,329.556213 447.477814,331.567963 448.886688,332.068268 
	C463.308411,337.189240 478.087708,340.871368 493.220917,343.093933 
	C516.956665,346.579987 540.778687,347.792694 564.759888,346.197083 
	C589.201477,344.570892 613.280457,341.034698 636.651001,333.536682 
	C640.543579,332.287842 641.855652,332.582489 641.695740,337.039032 
	C641.397461,345.353882 641.547852,353.687744 641.641968,362.012238 
	C641.676025,365.028809 641.083130,365.752899 637.625610,365.319641 
	C629.069336,364.247406 620.401672,364.063293 611.442871,363.304016 
z"/>
<path fill="#E25C32" opacity="1.000000" stroke="none" 
	d="
M521.128662,390.997375 
	C534.270508,391.685333 547.048523,391.317169 560.347290,391.095459 
	C578.109680,395.639862 595.761597,395.225372 613.353271,394.959991 
	C621.632385,394.835083 629.894470,393.672668 638.169495,393.049622 
	C639.217590,392.970703 640.724854,391.887329 641.305359,393.356018 
	C642.199097,395.617157 641.555847,397.964172 640.601074,400.125824 
	C640.004700,401.476074 638.970459,402.107910 637.363953,401.582794 
	C627.469482,398.348358 617.171021,397.473846 606.903931,397.352905 
	C594.456177,397.206268 582.044556,398.307343 570.180847,402.618195 
	C567.322021,403.656982 564.460327,404.124786 561.416809,404.048676 
	C556.257568,403.919556 551.060791,403.641418 545.936218,404.082062 
	C529.825317,405.467377 514.374268,401.890991 498.730316,398.905640 
	C482.606873,395.828705 466.337189,396.814178 450.436401,401.074768 
	C446.023682,402.257172 445.197998,400.485321 444.946594,396.832947 
	C444.723572,393.593842 445.758636,393.219055 448.942993,393.530151 
	C471.824829,395.765564 494.705658,396.220734 517.464355,392.070587 
	C518.590454,391.865234 519.662231,391.362000 521.128662,390.997375 
z"/>
<path fill="#E75A2D" opacity="1.000000" stroke="none" 
	d="
M397.367004,380.984161 
	C409.148376,380.978546 420.442719,381.072144 431.675934,382.879730 
	C438.123291,383.917206 434.296082,388.581512 434.831451,391.459564 
	C435.545319,395.297394 432.061920,393.848419 430.334137,393.675690 
	C419.405273,392.583160 408.461792,392.102997 397.480164,391.850189 
	C384.067780,391.541412 372.011993,387.340057 362.305176,377.617310 
	C361.718475,377.029602 361.149170,376.403107 360.685242,375.717865 
	C358.655151,372.719177 355.163940,369.392487 356.805817,366.026825 
	C358.547394,362.456879 363.523346,362.287750 367.324646,361.229401 
	C369.215027,360.703064 370.809540,361.667847 371.327301,363.394501 
	C375.153809,376.155670 384.961029,380.090485 397.367004,380.984161 
z"/>
<path fill="#DD5C33" opacity="1.000000" stroke="none" 
	d="
M610.482788,384.286316 
	C611.268738,381.224457 610.992249,378.269836 611.044983,374.946777 
	C620.325256,373.716492 629.623962,373.936829 638.756653,372.226440 
	C640.997559,371.806793 641.832397,372.753845 641.646606,374.890289 
	C641.632263,375.054871 641.639099,375.222229 641.648010,375.387695 
	C642.293213,387.384064 642.286682,387.424713 630.634155,385.537842 
	C624.050964,384.471802 617.401855,385.009369 610.482788,384.286316 
z"/>
<path fill="#E15D34" opacity="1.000000" stroke="none" 
	d="
M472.335999,374.374329 
	C472.903839,377.348999 473.062683,380.167145 473.313965,383.413910 
	C469.749298,385.452606 465.860168,384.346832 462.096039,384.779327 
	C459.463654,385.081757 456.765259,384.801941 454.130035,385.090057 
	C451.218811,385.408386 447.066956,387.370178 445.705566,385.272186 
	C443.646667,382.099335 445.092804,377.567444 445.079834,373.615662 
	C445.073792,371.777191 446.557037,372.158752 447.648895,372.333405 
	C455.692047,373.620087 463.798798,374.048950 472.335999,374.374329 
z"/>
<path fill="#020202" opacity="1.000000" stroke="none" 
	d="
M114.066788,280.939209 
	C111.516335,278.195190 109.216339,275.701385 106.916344,273.207611 
	C107.154320,272.912231 107.392303,272.616852 107.630280,272.321472 
	C111.833031,274.469604 116.100670,276.501129 120.222107,278.795319 
	C125.378632,281.665680 130.239014,281.729401 135.119583,278.168457 
	C137.122543,276.707092 139.382172,275.591919 141.549591,274.362549 
	C151.494217,268.721924 161.754135,268.140259 171.134430,274.783539 
	C182.401199,282.762756 192.907455,282.041351 203.705048,274.477539 
	C204.869675,273.661682 206.199081,273.081024 207.838760,272.178375 
	C200.576874,286.241364 187.147079,293.331177 174.893295,288.636383 
	C171.182816,287.214783 167.486023,285.703247 163.939133,283.921906 
	C158.975342,281.428986 154.064301,281.401154 149.043503,283.501038 
	C147.053802,284.333191 145.076050,285.200165 143.129196,286.127563 
	C130.011948,292.375946 124.773178,291.485382 114.066788,280.939209 
z"/>
<path fill="#030202" opacity="1.000000" stroke="none" 
	d="
M266.869690,226.391754 
	C264.636780,229.536163 262.171570,231.192642 258.699493,229.124390 
	C256.058014,227.550873 255.352646,225.077972 256.151672,222.267166 
	C257.047882,219.114563 259.593384,218.577988 262.451843,218.775177 
	C265.416107,218.979706 266.907166,220.639496 267.085388,223.533737 
	C267.135834,224.353195 267.031219,225.182190 266.869690,226.391754 
z"/>
<path fill="#000000" opacity="1.000000" stroke="none" 
	d="
M122.014000,138.102844 
	C102.599548,139.241257 83.659515,139.102173 64.722397,139.095337 
	C58.280640,139.093018 56.868538,137.657257 56.759087,131.218018 
	C56.581982,120.798737 56.668484,120.258842 66.701340,117.142815 
	C82.210091,112.326073 98.073410,110.886360 114.305603,112.641167 
	C123.918610,113.680405 133.230438,115.444557 142.329407,118.792236 
	C147.219803,120.591484 148.433411,123.698273 148.034683,128.378159 
	C147.317154,136.799835 146.358414,137.840103 137.980179,137.984360 
	C132.824677,138.073135 127.667534,138.066437 122.014000,138.102844 
z"/>
<path fill="#FFFFFF" opacity="1.000000" stroke="none" 
	d="
M86.723373,194.728455 
	C95.919571,185.532211 104.864609,176.586136 113.811523,167.641968 
	C114.635437,166.818298 115.392441,165.901001 116.317192,165.210098 
	C118.705536,163.425751 121.359818,163.031525 123.479034,165.335220 
	C125.504860,167.537369 125.592049,170.003906 123.194138,172.383331 
	C111.378342,184.108063 99.645828,195.916656 87.850998,207.662598 
	C85.440598,210.063034 82.500435,211.022659 80.021637,208.176941 
	C77.918968,205.763016 78.455147,202.942993 80.822784,200.628601 
	C82.727196,198.767029 84.590935,196.863846 86.723373,194.728455 
z"/>
<path fill="#FAFBFB" opacity="1.000000" stroke="none" 
	d="
M82.771561,178.771591 
	C87.131294,174.412491 91.236557,170.298935 95.353088,166.196671 
	C96.770317,164.784363 98.523308,162.821289 100.355003,164.686569 
	C102.141289,166.505600 100.837547,168.639694 99.163872,170.305466 
	C91.161064,178.270523 83.188591,186.266068 75.199898,194.245316 
	C73.851860,195.591782 72.148651,197.000702 70.547935,195.229523 
	C69.238617,193.780762 69.820000,191.767807 71.266357,190.309036 
	C75.007355,186.535904 78.768456,182.782730 82.771561,178.771591 
z"/>
<path fill="#9A9C9F" opacity="1.000000" stroke="none" 
	d="
M287.069214,208.942169 
	C286.419495,209.983673 285.634857,209.881104 284.576263,209.247437 
	C284.133667,208.882172 283.917480,208.653320 284.120422,208.206970 
	C284.539581,207.989471 284.492218,207.989548 284.495728,208.012970 
	C285.100372,207.681992 285.747772,207.543991 286.742950,208.030914 
	C287.044678,208.440552 287.052002,208.775528 287.069214,208.942169 
z"/>
<path fill="#434242" opacity="1.000000" stroke="none" 
	d="
M286.946411,208.112610 
	C286.484772,208.331848 285.924896,208.223129 284.932098,208.075409 
	C285.234497,207.507492 285.952179,206.814377 286.946411,208.112610 
z"/>
<path fill="#434242" opacity="1.000000" stroke="none" 
	d="
M284.181396,208.012070 
	C284.515228,208.177658 284.490875,208.365860 284.408173,208.832535 
	C284.125702,209.138321 283.901581,209.165604 283.345184,209.126892 
	C283.282990,208.718811 283.553070,208.376740 284.181396,208.012070 
z"/>
<path fill="#E0E1E2" opacity="1.000000" stroke="none" 
	d="
M26.104948,214.112305 
	C27.382004,211.692841 28.898617,211.302368 30.492998,213.212524 
	C31.349678,214.238861 31.113363,215.569473 30.010159,216.286392 
	C27.909548,217.651520 26.600796,216.787521 26.104948,214.112305 
z"/>
<path fill="#E0E1E2" opacity="1.000000" stroke="none" 
	d="
M287.559265,216.591370 
	C284.889038,216.972504 283.732239,215.943878 284.345673,213.610611 
	C284.666656,212.389801 285.879028,211.723572 287.080719,212.224335 
	C289.267426,213.135620 289.531616,214.648026 287.559265,216.591370 
z"/>
<path fill="#020202" opacity="1.000000" stroke="none" 
	d="
M649.944397,80.954079 
	C645.097351,74.057869 645.357178,69.122688 650.635986,63.253056 
	C659.962585,52.882587 676.371338,51.980072 686.948059,61.255882 
	C697.168457,70.219208 698.560181,86.364960 690.010376,96.782150 
	C684.635559,103.330902 679.216614,104.508659 672.160217,99.868179 
	C664.104797,94.570778 656.822327,88.250130 649.944397,80.954079 
z"/>
<path fill="#020201" opacity="1.000000" stroke="none" 
	d="
M431.429199,91.429504 
	C426.642853,95.306732 422.536743,99.502289 417.328735,102.231430 
	C410.955902,105.570992 406.691986,104.816689 401.739899,99.581665 
	C391.847992,89.124573 393.087036,71.466248 404.357788,62.272888 
	C415.817078,52.925762 433.724976,55.255890 441.868988,67.153748 
	C445.049042,71.799606 445.050690,76.359390 441.923859,81.051811 
	C439.203583,85.134148 435.350677,88.062309 431.429199,91.429504 
z"/>
<path fill="#070606" opacity="1.000000" stroke="none" 
	d="
M587.678040,195.669205 
	C583.661865,195.287079 580.253540,194.155746 576.529785,192.766327 
	C574.077698,188.604446 569.964539,187.414032 566.118896,185.293976 
	C560.618774,178.317841 559.719604,171.061539 562.982483,162.877274 
	C563.580505,158.545578 566.395752,156.140762 569.415466,154.080765 
	C582.365723,145.246353 595.966858,144.486740 610.023193,151.231369 
	C611.953491,152.157578 613.819031,153.333237 615.057739,155.697556 
	C621.208740,162.543823 624.798523,169.765732 621.314270,178.703033 
	C617.390259,188.768341 608.955811,193.091339 599.045349,194.986343 
	C595.491089,195.665985 591.757263,195.406662 587.678040,195.669205 
z"/>
<path fill="#060606" opacity="1.000000" stroke="none" 
	d="
M508.274719,194.723495 
	C498.502319,196.321945 489.302551,195.967422 480.814636,191.058090 
	C465.630280,182.275620 464.290344,166.195465 477.899567,154.765015 
	C478.369171,152.570419 479.936066,151.832687 481.407257,151.118927 
	C495.505554,144.278931 509.059326,145.543045 521.961914,154.162689 
	C525.291443,156.386978 528.070251,159.279053 528.763550,163.916183 
	C530.991821,171.568115 530.410950,178.355865 525.268311,184.720612 
	C523.749756,187.566864 521.263733,187.384201 519.023743,187.301270 
	C514.823792,187.145798 511.454559,187.859695 510.810547,192.884933 
	C510.674072,193.949814 509.711670,194.454834 508.274719,194.723495 
z"/>
<path fill="#FCB142" opacity="1.000000" stroke="none" 
	d="
M655.777283,212.747833 
	C665.368469,212.957672 674.523743,213.032364 683.384338,215.872787 
	C686.570374,216.894165 689.717468,217.995239 692.396545,220.046692 
	C696.955261,223.537430 697.027954,227.629227 692.412109,231.128586 
	C687.070312,235.178299 680.692932,236.601242 674.216553,237.377716 
	C661.897156,238.854752 649.608276,238.923233 637.696228,234.820496 
	C633.010620,233.206696 627.245239,231.518692 627.259644,225.567856 
	C627.274109,219.579514 633.322571,218.337219 637.790527,216.336441 
	C639.590759,215.530289 641.611145,215.215530 643.758484,214.398605 
	C644.809631,212.787903 646.127808,213.149841 647.715149,213.172974 
	C649.912842,213.773453 651.757385,213.528442 653.875366,213.152527 
	C654.151245,212.939621 654.338745,212.891724 654.426880,212.931702 
	C654.791443,212.858582 655.067932,212.745483 655.777283,212.747833 
z"/>
<path fill="#FDFCFB" opacity="1.000000" stroke="none" 
	d="
M529.027954,164.111755 
	C518.254761,147.668182 497.433594,143.446808 478.395966,154.340561 
	C472.529877,151.757278 467.094543,148.848557 462.905945,144.197449 
	C457.583923,138.287735 459.061676,132.989746 466.787750,130.880615 
	C477.013123,128.089203 487.220154,129.612396 497.330414,131.798874 
	C508.589050,134.233719 519.339050,138.027771 529.047485,144.394089 
	C531.694214,146.129654 534.168335,148.078979 536.151306,150.585602 
	C540.501526,156.084610 539.303040,160.392303 532.701477,162.880188 
	C531.615845,163.289276 530.480713,163.566818 529.027954,164.111755 
z"/>
<path fill="#FDFCFB" opacity="1.000000" stroke="none" 
	d="
M615.400146,155.851135 
	C603.781372,148.021973 591.517578,146.259689 578.308838,150.791031 
	C572.101807,152.920380 567.407043,156.948593 563.215759,162.288696 
	C556.539673,159.630295 555.583557,155.957397 559.831177,150.572052 
	C561.917786,147.926605 564.513855,145.826248 567.378296,144.129700 
	C584.961853,133.715515 603.848267,128.326813 624.400330,129.920441 
	C629.021545,130.278778 634.330933,130.923645 635.835205,136.212753 
	C637.351196,141.542953 632.970337,144.644989 629.369324,147.599594 
	C625.235535,150.991348 620.443542,153.321732 615.400146,155.851135 
z"/>
<path fill="#774E2C" opacity="1.000000" stroke="none" 
	d="
M508.255371,194.939575 
	C508.592377,194.215164 509.883301,193.485825 509.839264,192.848694 
	C509.321350,185.350113 514.479065,185.751831 519.440125,185.679825 
	C521.057129,185.656372 522.749451,186.330139 524.688843,185.169556 
	C527.641418,186.758270 530.652954,186.802307 533.555725,186.953308 
	C544.210144,187.507553 554.830322,186.950394 565.679077,185.286285 
	C570.159790,186.084778 575.516418,185.506302 576.150574,192.267075 
	C574.808350,193.569366 575.020447,195.277512 574.304382,196.556824 
	C573.093811,198.719604 572.087585,200.048355 569.015076,199.048584 
	C564.982483,197.736420 560.815796,199.238403 559.798889,203.386093 
	C558.634460,208.135117 555.490662,208.412262 551.967041,208.934799 
	C550.506104,209.151459 549.039795,209.331635 547.252747,209.755524 
	C544.011963,212.069580 540.951477,211.829636 537.455750,210.238419 
	C535.902588,208.682129 534.291443,209.131638 532.859985,208.879166 
	C529.586853,208.301834 526.789734,207.800934 525.710083,203.533554 
	C524.622437,199.234482 520.547058,197.771240 516.470215,199.031158 
	C513.478821,199.955643 512.244202,198.884308 510.940216,196.312988 
	C510.374817,194.943909 509.471710,194.983078 508.255371,194.939575 
z"/>
<path fill="#FCBA7A" opacity="1.000000" stroke="none" 
	d="
M653.710938,212.950439 
	C652.501282,214.644592 650.534912,214.001953 648.352356,213.444916 
	C649.818298,213.122925 651.544495,213.042084 653.710938,212.950439 
z"/>
<path fill="#FCBA7A" opacity="1.000000" stroke="none" 
	d="
M656.198914,212.700043 
	C655.929932,212.905304 655.649658,212.947311 654.942261,212.980469 
	C654.851013,212.713760 655.187012,212.455872 655.842346,212.204254 
	C656.161682,212.210556 656.187622,212.536804 656.198914,212.700043 
z"/>
<path fill="#FCB143" opacity="1.000000" stroke="none" 
	d="
M425.041656,237.069138 
	C420.827667,236.394196 417.097534,235.495377 413.639069,233.839691 
	C410.073669,232.132828 405.854187,230.638962 405.797394,225.776169 
	C405.737427,220.642014 410.119873,219.018784 413.858276,217.332626 
	C418.732361,215.134247 423.987976,214.121780 429.291443,213.550217 
	C440.631317,212.328064 451.879578,212.662704 462.845703,216.152298 
	C465.199158,216.901199 467.541321,217.910446 469.634979,219.208878 
	C476.031128,223.175537 475.878571,228.480606 469.359467,232.289215 
	C464.393524,235.190445 458.921692,236.582397 453.285614,237.338745 
	C444.010315,238.583435 434.730682,238.668808 425.041656,237.069138 
z"/>
<path fill="#060607" opacity="1.000000" stroke="none" 
	d="
M537.041870,210.380905 
	C540.068542,209.939423 543.052124,209.943985 546.482666,209.965607 
	C545.581055,216.550644 549.326721,219.472839 554.800476,221.574036 
	C560.919922,223.923065 567.031128,225.736984 573.694031,225.094482 
	C578.531738,224.627991 582.752258,223.043427 585.920654,219.215607 
	C588.191406,216.472198 590.977234,215.661072 593.688232,218.089264 
	C596.469604,220.580444 595.571045,223.430801 593.295227,225.964233 
	C585.619141,234.509201 575.734314,236.085373 565.034973,234.733887 
	C558.213623,233.872253 551.762695,231.651749 545.888062,228.061859 
	C543.634399,226.684708 541.982178,226.691498 539.609680,228.002899 
	C529.011780,233.861053 517.801514,237.037399 505.617706,234.088181 
	C499.637390,232.640594 494.514374,229.643509 490.942261,224.464111 
	C489.254822,222.017365 489.724945,219.608246 491.976166,217.835052 
	C494.015747,216.228531 496.505371,216.128586 498.281006,218.131042 
	C506.507935,227.409088 516.446350,226.122345 526.734558,223.000748 
	C527.684265,222.712601 528.572144,222.215805 529.525330,221.944672 
	C535.163818,220.340744 538.393127,217.145538 537.041870,210.380905 
z"/>
<path fill="#F9F9F9" opacity="1.000000" stroke="none" 
	d="
M594.494019,182.449249 
	C595.403076,180.861191 596.081482,179.545151 596.995422,177.772171 
	C592.945862,176.871689 589.641479,175.287018 589.028564,170.878479 
	C588.415161,166.466644 590.585510,163.607895 594.318542,161.643768 
	C591.936462,157.772186 588.214600,156.040375 583.674561,154.270721 
	C594.665466,151.953064 604.146667,153.512970 612.177307,160.516205 
	C620.108521,167.432724 619.750549,177.534897 611.554443,184.181793 
	C603.515198,190.701538 594.309631,192.045822 583.293579,189.846756 
	C588.293945,188.232941 591.785889,186.190918 594.494019,182.449249 
z"/>
<path fill="#F9F9F9" opacity="1.000000" stroke="none" 
	d="
M503.200317,190.725494 
	C495.844421,191.301590 489.217957,190.235550 483.078766,186.757996 
	C470.239166,179.485031 469.906433,165.373840 482.553772,157.758301 
	C489.728638,153.437958 497.524841,152.112183 507.259766,154.248886 
	C502.461853,156.236816 499.153961,158.060791 496.968414,161.310623 
	C504.613129,167.864914 504.251984,173.067657 495.654572,177.216171 
	C493.362000,178.322418 494.856689,179.412277 495.264099,180.234741 
	C497.174774,184.091949 500.246582,186.758545 504.177094,188.560715 
	C507.456512,190.064331 505.207672,190.333817 503.200317,190.725494 
z"/>
</svg>